<svg width="283" height="110" xmlns="http://www.w3.org/2000/svg" xmlns:xlink="http://www.w3.org/1999/xlink" overflow="hidden"><defs><clipPath id="clip0"><rect x="579" y="336" width="283" height="110"/></clipPath></defs><g clip-path="url(#clip0)" transform="translate(-579 -336)"><path d="M701.716 358.671 752.701 409.656 739.105 423.252 688.12 372.267Z" fill="#FFFFFF" fill-rule="evenodd"/><path d="M688.12 409.656 739.105 358.671 752.701 372.267 701.716 423.252Z" fill="#FFFFFF" fill-rule="evenodd"/><path d="M580 373C580 353.118 596.118 337 616 337 635.882 337 652 353.118 652 373 652 392.882 635.882 409 616 409 596.118 409 580 392.882 580 373Z" fill="#FFFFFF" fill-rule="evenodd"/><rect x="606" y="373" width="20" height="72" fill="#FFFFFF"/><rect x="614" y="417" width="24" height="20" fill="#FFFFFF"/><rect x="833" y="342" width="14" height="98" fill="#FFFFFF"/><rect x="833" y="342" width="28" height="14" fill="#FFFFFF"/><path d="M789 364.5C789 358.149 793.925 353 800 353 806.075 353 811 358.149 811 364.5 811 370.851 806.075 376 800 376 793.925 376 789 370.851 789 364.5Z" fill="#FFFFFF" fill-rule="evenodd"/><path d="M789 417C789 410.925 793.925 406 800 406 806.075 406 811 410.925 811 417 811 423.075 806.075 428 800 428 793.925 428 789 423.075 789 417Z" fill="#FFFFFF" fill-rule="evenodd"/><rect x="833" y="426" width="28" height="14" fill="#FFFFFF"/></g></svg>